<?xml version="1.0" encoding="utf-8"?>
<!-- Generator: Adobe Illustrator 26.0.0, SVG Export Plug-In . SVG Version: 6.00 Build 0)  -->
<svg version="1.1" id="Layer_1" xmlns="http://www.w3.org/2000/svg" xmlns:xlink="http://www.w3.org/1999/xlink" x="0px" y="0px"
	 viewBox="0 0 1000 1000" enable-background="new 0 0 1000 1000" xml:space="preserve">
<g>
	<path d="M500,985.5c-65.6,0-129.1-12.8-189-38.1c-57.8-24.5-109.7-59.5-154.3-104.1S77.1,746.8,52.6,689
		c-25.3-59.8-38.1-123.4-38.1-189c0-65.6,12.8-129.1,38.1-189c24.5-57.8,59.5-109.7,104.1-154.3S253.2,77.1,311,52.6
		c59.8-25.3,123.4-38.1,189-38.1c65.6,0,129.1,12.8,189,38.1c57.8,24.5,109.7,59.5,154.3,104.1s79.6,96.5,104.1,154.3
		c25.3,59.8,38.1,123.4,38.1,189c0,65.6-12.8,129.1-38.1,189c-24.5,57.8-59.5,109.7-104.1,154.3S746.8,922.9,689,947.4
		C629.1,972.7,565.6,985.5,500,985.5z"/>
	<path fill="#F7941D" d="M500,27c63.9,0,125.8,12.5,184.1,37.2C740.4,88,791,122.1,834.5,165.5c43.4,43.4,77.6,94,101.4,150.4
		C960.5,374.2,973,436.1,973,500s-12.5,125.8-37.2,184.1C912,740.4,877.9,791,834.5,834.5c-43.4,43.4-94,77.6-150.4,101.4
		C625.8,960.5,563.9,973,500,973s-125.8-12.5-184.1-37.2C259.6,912,209,877.9,165.5,834.5C122.1,791,88,740.4,64.1,684.1
		C39.5,625.8,27,563.9,27,500s12.5-125.8,37.2-184.1C88,259.6,122.1,209,165.5,165.5c43.4-43.4,94-77.6,150.4-101.4
		C374.2,39.5,436.1,27,500,27 M500,2C225,2,2,225,2,500s223,498,498,498s498-223,498-498S775,2,500,2L500,2z"/>
</g>
<path fill="#F7941D" d="M188.2,592.8c-15.9,0-28.3-2.7-40.2-8.6c-11.1-5.5-22.6-15.1-29.1-21.6l-6.1-6.1l33.7-46.3l8.4,8.4
	c4.6,4.6,11.2,10,14.9,12.3c5.6,3.4,11.1,5,17.4,5c3.6,0,8.7-0.7,12.3-3.8l0.1-0.1c1.3-1.1,2.9-3.2,2.9-6.9c0-2.3-0.6-3.5-2.6-5.2
	c-3.5-2.9-14.3-6.9-17.9-8.2l-14.9-5.2c-9.7-3.4-20.7-7.9-29.2-17c-9-9.5-13.6-22.4-13.6-38.3c0-19,6.2-35,18.6-47.6
	c17.2-17.5,37.8-19.6,51.9-19.6c21.8,0,41.9,6.7,59.6,19.8l7.5,5.5L231.8,458l-9-8.1c-7.7-6.9-15.6-10.4-23.5-10.4
	c-5.2,0-8.3,0.9-10,2.9l-0.2,0.2l-0.2,0.2c-0.4,0.4-1.6,1.8-1.6,4.2c0,1.8,0.4,2.2,0.7,2.5l0.2,0.1c1.9,1.8,5.9,3.2,12.5,5.6
	c2.1,0.8,4.4,1.6,6.9,2.5l13.5,5.1c9.8,3.7,20,8.2,28,16c10.7,10.1,16.4,24.3,16.4,40.8c0,20.2-7,39.5-18.8,51.6
	C233,585.6,213.4,592.8,188.2,592.8z"/>
<path d="M229.6,442.4c-13.5-12.2-25.1-13-30.3-13c-5.7,0-12.7,0.8-17.6,6.2c-2.7,2.7-4.6,6.8-4.6,11.4c0,4.3,1.4,7.6,4.1,10
	c4.3,4.1,10.5,5.7,22.7,10.3l13.5,5.1c7.8,3,17.6,7,24.6,13.8c10.5,10,13.2,23,13.2,33.5c0,18.7-6.5,34.9-16,44.6
	c-16,16.8-39.2,18.4-51.1,18.4c-13,0-24.3-1.9-35.7-7.6c-9.2-4.6-19.7-13-26.5-19.7l21.6-29.7c4.6,4.6,11.9,10.8,16.8,13.8
	c7,4.3,14.3,6.5,22.7,6.5c5.4,0,13-1.1,18.9-6.2c3.5-3,6.5-7.8,6.5-14.6c0-5.9-2.4-9.7-6.2-13c-4.9-4.1-16-8.1-21.1-10l-14.9-5.1
	c-8.4-3-18.1-6.8-25.1-14.3c-9.5-10-10.8-22.7-10.8-31.4c0-16,4.9-29.5,15.7-40.6c12.7-13,27.9-16.5,44.6-16.5
	c12.4,0,32.4,2.2,53.5,17.8L229.6,442.4z"/>
<path fill="#F7941D" d="M402.8,405.6c-17.4-15.4-38-17.4-54-17.4h-73.7v200.6H337v-63.3h15.3c14.8,0,36.5-2,53.2-19l0.1-0.1
	c12.1-12.6,18.2-29.2,18.2-49.5C423.8,434.8,416.9,418,402.8,405.6z M316.8,422.2H341c9.4,0,21.4,1.1,30.2,9.5
	c6.3,5.9,9.9,15,9.9,24.9c0,9.7-3.5,18.8-9.7,25l-0.1,0.1c-10,9.6-23.6,9.6-29.5,9.6h-25V422.2z"/>
<path d="M396.1,413.2c-14.3-12.7-31.6-14.9-47.3-14.9h-63.5v180.4h41.6v-63.3h25.4c12.7,0,31.6-1.4,46-16c6.8-7,15.4-19.7,15.4-42.4
	C413.7,444.5,411.5,426.7,396.1,413.2z M371.4,481.7l-0.1,0.1c-10,9.6-23.6,9.6-29.5,9.6h-25v-69.2H341c9.4,0,21.4,1.1,30.2,9.5
	c6.3,5.9,9.9,15,9.9,24.9C381.1,466.4,377.6,475.5,371.4,481.7z"/>
<path fill="#F7941D" d="M371.2,431.8c-8.9-8.5-20.8-9.5-30.2-9.5h-24.2v69.2h25c5.8,0,19.5,0,29.5-9.6l0.1-0.1
	c6.2-6.2,9.7-15.3,9.7-25C381.1,446.8,377.5,437.7,371.2,431.8z M364.2,474.6c-6.8,6.5-16.8,6.8-22.4,6.8h-14.9v-48.9H341
	c8.1,0,17,0.8,23.3,6.8c4.1,3.8,6.8,10,6.8,17.6C371,464.5,368,470.8,364.2,474.6z"/>
<polygon fill="#F7941D" points="536.3,588.8 522.8,554.7 468.4,554.7 454.6,588.8 389.5,588.8 470.4,388.2 522.3,388.2 601.4,588.8 
	"/>
<polygon points="529.7,544.6 461.6,544.6 447.8,578.7 404.5,578.7 477.2,398.3 515.4,398.3 586.5,578.7 543.2,578.7 "/>
<polygon fill="#F7941D" points="459.2,522.8 496.2,422.8 532.8,522.8 "/>
<polygon points="518.3,512.7 496.2,452.1 473.7,512.7 "/>
<path fill="#F7941D" d="M691.9,592.8c-32,0-58.2-9.8-77.9-29.1c-20.1-19.5-31.2-46.3-31.2-75.7c0-28.6,11.4-56,31.2-75.2
	c19.2-18.6,45.6-28.8,74.4-28.8c14.9,0,30.4,3.5,47.3,10.8l6.1,2.6v80.3l-17.5-18.5c-10-10.6-21.8-16-34.8-16
	c-12.2,0-22,3.7-29.7,11.2c-8.9,8.6-14,21.2-14,34.4c0,17.7,7.9,27.9,12.6,32.5l0.1,0.1c3.7,3.7,14.1,12.2,31.8,12.2
	c7.8,0,19.9-1.6,34.3-15.7l17.2-16.9v78.2l-5.5,2.8C717.2,591.7,701.8,592.8,691.9,592.8z"/>
<path d="M731.7,573c-16,8.1-28.9,9.7-39.7,9.7c-33.3,0-55.7-11.4-70.8-26.2C604.9,540.8,593,517,593,488.1
	c0-28.4,11.9-52.2,28.1-67.9c16-15.4,39.2-26,67.3-26c11.9,0,25.7,2.4,43.3,10v48.1c-9.2-9.7-23-19.2-42.2-19.2
	c-15.1,0-27.3,4.9-36.8,14.1c-10,9.7-17,24.3-17,41.6c0,18.7,7.6,31.9,15.7,39.7c3.8,3.8,16.8,15.1,38.9,15.1
	c10.8,0,25.4-3,41.4-18.7V573z"/>
<polygon fill="#F7941D" points="754.8,588.8 754.8,388.2 877,388.2 877,443.6 816.7,443.6 816.7,458.2 874,458.2 874,513.6 
	816.7,513.6 816.7,533.4 877,533.4 877,588.8 "/>
<polygon points="866.9,433.5 806.6,433.5 806.6,468.3 863.9,468.3 863.9,503.5 806.6,503.5 806.6,543.5 866.9,543.5 866.9,578.7 
	764.9,578.7 764.9,398.3 866.9,398.3 "/>
<g>
	<g>
		<path fill="#D1D3D4" d="M620.8,626L342.1,626c0-0.3,0-0.5,0.1-0.8c0.6-4.2,6.3-8.2,12.6-8.2c4.3,0,8,1.5,10.1,3.7
			c0-0.1,0-0.3,0-0.4c0-0.4,0-0.8,0-1.2c0-15.4,18.5-28,41.3-28c8.4,0,16.2,1.7,22.7,4.6c1.9-2.8,6.1-4.8,11-4.8c0.7,0,1.3,0,2,0.1
			c0-7,8.5-12.7,18.9-12.7c2.3,0,4.5,0.3,6.5,0.8c0-0.1,0-0.2,0.1-0.3c-0.1-0.4-0.2-0.8-0.2-1.2c0-4.7,5.7-8.6,12.7-8.6
			c1,0,1.9,0.1,2.8,0.2l7.1-12.6h11.7l7.2,12.9c5.3,1.1,9.3,4.2,10.2,8c1.6-0.4,3.4-0.7,5.3-0.7c8.1,0,14.7,4.5,14.7,10
			c0,0.4,0,0.9-0.1,1.3c0.1,0.3,0.1,0.6,0.1,0.9h0c11.5,0,21.1,5.3,23.7,12.5c5.1-1.6,10.8-2.4,16.8-2.4
			C601.8,599.2,619.9,611.1,620.8,626z"/>
	</g>
	<g>
		<path fill="#D1D3D4" d="M588.3,585.5c-0.1-1.5-2-2.7-4.3-2.7c-1.9,0-3.4,0.8-4,1.9c-0.8-0.6-1.9-1-3.2-1c-2.4,0-4.3,1.3-4.3,2.9
			c0,1.1,0.9,2.1,2.3,2.6c-0.7,0.5-1.1,1.2-1.1,1.9c0,1.6,1.9,2.9,4.3,2.9c0.8,0,1.6-0.2,2.2-0.4c0,0,0,0,0,0c0,0.1-0.1,0.3-0.1,0.4
			c0,1.2,1.4,2.1,3.1,2.1s3.1-0.9,3.1-2.1c0-0.2,0-0.3-0.1-0.5c0.5,0.1,1.1,0.2,1.7,0.2c3.4,0,6.1-1.8,6.1-4.1
			C594,587.4,591.5,585.6,588.3,585.5z"/>
		<path fill="#D1D3D4" d="M437.8,567.1c-0.1-1.5-2-2.7-4.3-2.7c-1.9,0-3.4,0.8-4,1.9c-0.8-0.6-1.9-1-3.2-1c-2.4,0-4.3,1.3-4.3,2.9
			c0,1.1,0.9,2.1,2.3,2.6c-0.7,0.5-1.1,1.2-1.1,1.9c0,1.6,1.9,2.9,4.3,2.9c0.8,0,1.6-0.2,2.2-0.4c0,0,0,0,0,0c0,0.1-0.1,0.3-0.1,0.4
			c0,1.2,1.4,2.1,3.1,2.1c1.7,0,3.1-0.9,3.1-2.1c0-0.2,0-0.3-0.1-0.5c0.5,0.1,1.1,0.2,1.7,0.2c3.4,0,6.1-1.8,6.1-4.1
			C443.6,569,441,567.2,437.8,567.1z"/>
		<path fill="#D1D3D4" d="M608.1,593c-0.1-0.7-0.9-1.2-1.9-1.2c-0.8,0-1.5,0.4-1.8,0.9c-0.4-0.3-0.9-0.4-1.4-0.4
			c-1.1,0-1.9,0.6-1.9,1.3c0,0.5,0.4,0.9,1,1.2c-0.3,0.2-0.5,0.5-0.5,0.9c0,0.7,0.9,1.3,1.9,1.3c0.4,0,0.7-0.1,1-0.2c0,0,0,0,0,0
			c0,0.1,0,0.1,0,0.2c0,0.5,0.6,0.9,1.4,0.9c0.8,0,1.4-0.4,1.4-0.9c0-0.1,0-0.1,0-0.2c0.2,0,0.5,0.1,0.8,0.1c1.5,0,2.7-0.8,2.7-1.8
			C610.7,593.9,609.5,593.1,608.1,593z"/>
		<path fill="#D1D3D4" d="M464.9,559.8c-0.1-0.9-1.2-1.6-2.5-1.6c-1.1,0-2,0.5-2.4,1.1c-0.5-0.3-1.1-0.6-1.9-0.6
			c-1.4,0-2.6,0.8-2.6,1.7c0,0.7,0.5,1.2,1.3,1.5c-0.4,0.3-0.6,0.7-0.6,1.1c0,0.9,1.1,1.7,2.5,1.7c0.5,0,0.9-0.1,1.3-0.3
			c0,0,0,0,0,0c0,0.1,0,0.2,0,0.2c0,0.7,0.8,1.2,1.8,1.2c1,0,1.8-0.6,1.8-1.2c0-0.1,0-0.2-0.1-0.3c0.3,0.1,0.6,0.1,1,0.1
			c2,0,3.6-1.1,3.6-2.4C468.3,561,466.8,559.9,464.9,559.8z"/>
		<path fill="#D1D3D4" d="M419.4,581c-0.1-0.7-0.9-1.2-1.9-1.2c-0.8,0-1.5,0.4-1.8,0.9c-0.4-0.3-0.9-0.4-1.4-0.4
			c-1.1,0-1.9,0.6-1.9,1.3c0,0.5,0.4,0.9,1,1.2c-0.3,0.2-0.5,0.5-0.5,0.9c0,0.7,0.9,1.3,1.9,1.3c0.4,0,0.7-0.1,1-0.2c0,0,0,0,0,0
			c0,0.1,0,0.1,0,0.2c0,0.5,0.6,0.9,1.4,0.9c0.8,0,1.4-0.4,1.4-0.9c0-0.1,0-0.1,0-0.2c0.2,0,0.5,0.1,0.8,0.1c1.5,0,2.7-0.8,2.7-1.8
			C422,581.8,420.8,581,419.4,581z"/>
	</g>
</g>
<g>
	<path fill="#F7941D" d="M523.6,550.8h-56.2l-35.6,10.1v-35.6l25-17.4c0.2-20.3,5.4-45.1,14.3-68.3c3.3-8.5,14.7-36.2,24.4-36.2
		c9.8,0,21.2,27.7,24.4,36.2c8.9,23.2,14.1,48,14.3,68.3l25,17.3v35.6L523.6,550.8z"/>
	<path fill="#F1F2F2" d="M556.1,556.8v-29.9l-25-17.3c0-0.2,0-0.3,0-0.5c0-45.5-25.8-102.5-35.6-102.5c-9.9,0-35.6,57-35.6,102.5
		c0,0.2,0,0.3,0,0.4l-25,17.4v29.9l32.1-9.1H524L556.1,556.8z"/>
	<polygon fill="#F7941D" points="445,553.9 434.8,556.8 434.8,526.9 445,519.9 	"/>
	<path opacity="0.1" fill="#414042" d="M463.4,548.7c-2.5-13.4-10.5-26.1-14.3-31.6l15.3-10.6l11.4,38.7L463.4,548.7z"/>
	<polygon opacity="0.5" fill="#FFFFFF" points="438.2,528.3 438.2,539.1 441.7,530.1 454.2,518.5 	"/>
	<polygon fill="#F7941D" points="546,553.9 556.1,556.8 556.1,526.9 546,519.9 	"/>
	<path opacity="0.1" fill="#414042" d="M527.6,548.7c2.5-13.4,10.5-26.1,14.3-31.6l-15.3-10.6l-11.4,38.7L527.6,548.7z"/>
	<polygon opacity="0.5" fill="#FFFFFF" points="553.8,528.3 553.8,539.1 550.4,530.1 537.8,518.5 	"/>
	<rect x="482.9" y="549.7" fill="#F7941D" width="25.1" height="10.8"/>
	<polygon fill="#939598" points="510,565.7 481,565.7 482.9,559 508.1,559 	"/>
	<rect x="471.7" y="541.6" fill="#D1D3D4" width="47.5" height="13"/>
	<polygon opacity="0.1" fill="#414042" points="519.3,544.7 476,548.1 519.3,551.8 	"/>
	<path fill="#F7941D" d="M460.6,494.7h69.7c-0.6-5.6-1.5-11.2-2.6-16.8h-64.6C462.1,483.4,461.2,489.1,460.6,494.7z"/>
	<path fill="#F7941D" d="M477.8,431.5h35.4c-6.6-15-13.6-24.9-17.7-24.9C491.4,406.6,484.5,416.5,477.8,431.5z"/>
	<path fill="#F7941D" d="M461.6,532.5c1,5.8,2.3,11.2,3.9,15.6h60c1.6-4.4,3-9.8,3.9-15.6H461.6z"/>
	<path opacity="0.5" fill="#FFFFFF" d="M500.8,415.6c-0.1-0.1-0.2-0.2-0.3-0.3c-0.2-0.2-0.4-0.4-0.7-0.6c-4.8-4.2-9,0.6-9,0.6
		c-3.8,4-9.2,11.8-13,26.3c0,0,14.7-26.6,28.9-18.7C506.7,422.9,504.3,419,500.8,415.6z"/>
	<path fill="#9B9D9E" d="M517.2,468.7c0,12-9.7,21.7-21.7,21.7c-12,0-21.7-9.7-21.7-21.7c0-12,9.7-21.7,21.7-21.7
		C507.5,447,517.2,456.7,517.2,468.7z"/>
	<path fill="#FFFFFF" d="M510.3,468.7c0,8.1-6.6,14.8-14.8,14.8c-8.1,0-14.8-6.6-14.8-14.8c0-8.2,6.6-14.8,14.8-14.8
		C503.7,453.9,510.3,460.5,510.3,468.7z"/>
	<path fill="#27AAE1" d="M508.5,468.7c0,7.2-5.8,13-13,13c-7.2,0-13-5.8-13-13c0-7.2,5.8-13,13-13
		C502.7,455.7,508.5,461.5,508.5,468.7z"/>
	<g opacity="0.5">
		<path fill="#FFFFFF" d="M508.2,465.9c-0.4-1.9-1.2-3.6-2.3-5.1l-18.2,18.2c1.5,1.1,3.2,1.9,5.1,2.3L508.2,465.9z"/>
		<path fill="#FFFFFF" d="M495.5,455.7c-0.3,0-0.7,0-1,0l-12,12c0,0.3,0,0.7,0,1c0,3.6,1.4,6.8,3.8,9.2l18.4-18.4
			C502.3,457.1,499.1,455.7,495.5,455.7z"/>
	</g>
	<path fill="#FFFFFF" d="M497.4,450.9c0,1.1-0.9,1.9-1.9,1.9c-1.1,0-1.9-0.9-1.9-1.9c0-1.1,0.9-1.9,1.9-1.9
		C496.6,449,497.4,449.8,497.4,450.9z M495.5,484.6c-1.1,0-1.9,0.9-1.9,1.9c0,1.1,0.9,1.9,1.9,1.9c1.1,0,1.9-0.9,1.9-1.9
		C497.4,485.4,496.6,484.6,495.5,484.6z M515.2,468.7c0-1.1-0.9-1.9-1.9-1.9c-1.1,0-1.9,0.9-1.9,1.9c0,1.1,0.9,1.9,1.9,1.9
		C514.4,470.6,515.2,469.7,515.2,468.7z M479.6,468.7c0-1.1-0.9-1.9-1.9-1.9c-1.1,0-1.9,0.9-1.9,1.9c0,1.1,0.9,1.9,1.9,1.9
		C478.8,470.6,479.6,469.7,479.6,468.7z M509.4,454.8c-0.7-0.7-2-0.7-2.7,0c-0.7,0.7-0.7,2,0,2.7c0.7,0.7,2,0.7,2.7,0
		C510.2,456.7,510.2,455.5,509.4,454.8z M484.3,479.9c-0.7-0.7-2-0.7-2.7,0c-0.7,0.7-0.7,2,0,2.7s2,0.7,2.7,0
		C485,481.9,485,480.7,484.3,479.9z M509.4,482.6c0.7-0.7,0.7-2,0-2.7c-0.7-0.7-2-0.7-2.7,0c-0.7,0.7-0.7,2,0,2.7
		C507.5,483.4,508.7,483.4,509.4,482.6z M484.3,457.5c0.7-0.7,0.7-2,0-2.7c-0.7-0.7-2-0.7-2.7,0c-0.7,0.7-0.7,2,0,2.7
		C482.3,458.2,483.5,458.2,484.3,457.5z"/>
</g>
<g>
</g>
<g>
</g>
<g>
</g>
<g>
</g>
<g>
</g>
<g>
</g>
</svg>
